<svg width="211" height="185" viewBox="0 0 211 185" fill="none" xmlns="http://www.w3.org/2000/svg">
<path d="M87.2447 184.263V159.39H81.8223V154.858H87.2447V152.943C87.2447 151.054 87.6314 149.382 88.4047 147.925C89.1781 146.468 90.2572 145.326 91.642 144.499C93.0448 143.671 94.6904 143.258 96.5788 143.258H98.9259V148.114H96.5788C95.212 148.114 94.1239 148.554 93.3146 149.436C92.5053 150.317 92.1006 151.486 92.1006 152.943V154.858H98.9259V159.39H92.1006V184.263H87.2447Z" fill="white"/>
<path d="M36.2969 184.263V143.797H46.2785C49.0661 143.797 51.2872 144.66 52.9418 146.387C54.6144 148.113 55.4507 150.397 55.4507 153.239V159.039C55.4507 160.909 55.0641 162.564 54.2907 164.003C53.5353 165.424 52.4563 166.539 51.0534 167.348L50.7567 165.756C52.2494 166.314 53.4005 167.177 54.2098 168.346C55.0371 169.515 55.4507 170.909 55.4507 172.528V184.263H50.3251V172.528C50.3251 171.305 49.9564 170.325 49.219 169.587C48.4996 168.85 47.5194 168.481 46.2785 168.481H41.4226V184.263H36.2969ZM41.4226 163.355H46.2785C47.5194 163.355 48.4996 162.96 49.219 162.168C49.9564 161.377 50.3251 160.334 50.3251 159.039V153.239C50.3251 151.944 49.9564 150.901 49.219 150.11C48.4996 149.318 47.5194 148.923 46.2785 148.923H41.4226V163.355Z" fill="white"/>
<path d="M69.2787 184.937C66.6889 184.937 64.6836 184.191 63.2628 182.698C61.8599 181.187 61.1585 179.272 61.1585 176.952C61.1585 175.567 61.3923 174.407 61.8599 173.472C62.3455 172.519 62.966 171.745 63.7214 171.152C64.4947 170.54 65.322 170.037 66.2033 169.641C67.2464 169.173 68.3075 168.796 69.3866 168.508C70.4837 168.202 71.4908 167.897 72.408 167.591C73.3253 167.267 74.0627 166.853 74.6202 166.35C75.1957 165.828 75.4835 165.118 75.4835 164.219V163.571C75.4835 162.204 75.0788 161.107 74.2695 160.28C73.4781 159.453 72.3901 159.039 71.0052 159.039C69.6384 159.039 68.5593 159.453 67.768 160.28C66.9766 161.107 66.581 162.204 66.581 163.571V164.65H61.725V163.841C61.725 160.945 62.5703 158.616 64.2609 156.854C65.9695 155.073 68.2176 154.183 71.0052 154.183C72.8757 154.183 74.5033 154.588 75.8881 155.397C77.2909 156.188 78.379 157.312 79.1524 158.769C79.9437 160.226 80.3394 161.917 80.3394 163.841V184.263H75.4835V180.027L76.3198 181.106C75.6903 182.329 74.7731 183.274 73.5681 183.939C72.3811 184.604 70.9513 184.937 69.2787 184.937ZM70.5736 180.378C72.0483 180.378 73.2353 179.964 74.1346 179.137C75.0338 178.292 75.4835 177.033 75.4835 175.36V170.531C74.6022 171.125 73.595 171.538 72.462 171.772C71.3469 172.006 70.2589 172.321 69.1978 172.717C68.2446 173.076 67.4712 173.544 66.8777 174.119C66.3022 174.695 66.0144 175.486 66.0144 176.493C66.0144 177.59 66.4011 178.517 67.1745 179.272C67.9658 180.009 69.0988 180.378 70.5736 180.378Z" fill="white"/>
<path d="M125.197 184.937C123.74 184.937 122.4 184.613 121.177 183.966C119.954 183.301 118.974 182.275 118.237 180.891C117.5 179.506 117.131 177.716 117.131 175.522V163.571C117.131 161.377 117.5 159.588 118.237 158.203C118.974 156.818 119.954 155.802 121.177 155.154C122.4 154.507 123.74 154.183 125.197 154.183C126.726 154.183 128.03 154.498 129.109 155.127C130.206 155.757 131.06 156.647 131.672 157.798L130.835 158.904V143.797H135.691V184.263H130.835V180.216L131.672 181.322C131.06 182.455 130.206 183.346 129.109 183.993C128.03 184.622 126.726 184.937 125.197 184.937ZM126.465 180.081C127.85 180.081 128.92 179.668 129.675 178.84C130.449 177.995 130.835 176.898 130.835 175.549V163.571C130.835 162.204 130.449 161.107 129.675 160.28C128.92 159.453 127.841 159.039 126.438 159.039C125.053 159.039 123.965 159.453 123.174 160.28C122.382 161.107 121.987 162.204 121.987 163.571V175.522C121.987 176.871 122.382 177.968 123.174 178.813C123.965 179.659 125.062 180.081 126.465 180.081Z" fill="white"/>
<path d="M151.409 184.937C149.557 184.937 147.929 184.533 146.526 183.723C145.124 182.914 144.026 181.781 143.235 180.324C142.462 178.867 142.075 177.177 142.075 175.252V163.841C142.075 161.917 142.462 160.226 143.235 158.769C144.026 157.312 145.124 156.188 146.526 155.397C147.929 154.588 149.557 154.183 151.409 154.183C154.215 154.183 156.463 155.073 158.154 156.854C159.844 158.616 160.689 160.945 160.689 163.841V170.531H146.122V165.945H155.834V163.571C155.834 162.204 155.438 161.107 154.647 160.28C153.873 159.453 152.794 159.039 151.409 159.039C150.042 159.039 148.954 159.453 148.145 160.28C147.336 161.107 146.931 162.204 146.931 163.571V175.522C146.931 176.871 147.336 177.968 148.145 178.813C148.954 179.659 150.042 180.081 151.409 180.081C152.794 180.081 153.873 179.659 154.647 178.813C155.438 177.968 155.834 176.871 155.834 175.522V174.713H160.689V175.252C160.689 178.148 159.844 180.486 158.154 182.266C156.463 184.047 154.215 184.937 151.409 184.937Z" fill="white"/>
<path d="M163.702 184.263L171.66 169.533L163.702 154.858H168.828L175.167 166.512H173.009L179.322 154.858H184.448L176.516 169.533L184.448 184.263H179.322L173.009 172.555H175.167L168.828 184.263H163.702Z" fill="white"/>
<path d="M103.023 143.258L103.023 168.101L103.024 172.628L103.023 174.541C103.023 176.427 103.41 178.097 104.182 179.552C104.955 181.007 106.032 182.148 107.415 182.974C108.817 183.801 110.46 184.214 112.346 184.214L114.691 184.214L114.691 179.364L112.346 179.364C110.981 179.364 109.894 178.924 109.086 178.043C108.278 177.163 107.874 175.996 107.874 174.541L107.874 172.628L107.874 168.101L107.874 143.258L103.023 143.258Z" fill="white"/>
<g filter="url(#filter0_d_812_13861)">
<path d="M63.356 83.6938C64.3408 82.2318 66.2034 81.8151 67.7294 82.3072C72.0498 83.7003 76.9743 82.1086 79.6708 78.1054C82.3673 74.1021 81.9918 68.9405 79.0773 65.4602C78.0479 64.2309 77.7341 62.3483 78.7189 60.8863L80.6449 58.0269C81.6297 56.5649 83.4985 56.1007 84.8189 56.9901L102.113 68.5471L102.113 116.557L62.0376 90.8108C60.7172 89.9214 60.4452 88.0152 61.43 86.5532L63.356 83.6938Z" fill="#0057FF"/>
</g>
<g filter="url(#filter1_d_812_13861)">
<path d="M143.769 56.3594C142.006 56.3594 140.621 57.8145 140.153 59.5141C138.839 64.29 134.615 67.7859 129.61 67.7859C124.604 67.7859 120.38 64.29 119.066 59.5141C118.598 57.8145 117.213 56.3594 115.45 56.3594H111.622C109.859 56.3594 108.43 57.7884 108.43 59.5512V120.922L149.3 95.145C150.227 94.5604 150.789 93.5411 150.789 92.4453V59.5512C150.789 57.7884 149.36 56.3594 147.598 56.3594H143.769Z" fill="#B9FF66"/>
</g>
<defs>
<filter id="filter0_d_812_13861" x="0.837891" y="0.538086" width="161.275" height="180.019" filterUnits="userSpaceOnUse" color-interpolation-filters="sRGB">
<feFlood flood-opacity="0" result="BackgroundImageFix"/>
<feColorMatrix in="SourceAlpha" type="matrix" values="0 0 0 0 0 0 0 0 0 0 0 0 0 0 0 0 0 0 127 0" result="hardAlpha"/>
<feOffset dy="4"/>
<feGaussianBlur stdDeviation="30"/>
<feComposite in2="hardAlpha" operator="out"/>
<feColorMatrix type="matrix" values="0 0 0 0 0 0 0 0 0 0.34 0 0 0 0 1 0 0 0 1 0"/>
<feBlend mode="normal" in2="BackgroundImageFix" result="effect1_dropShadow_812_13861"/>
<feBlend mode="normal" in="SourceGraphic" in2="effect1_dropShadow_812_13861" result="shape"/>
</filter>
<filter id="filter1_d_812_13861" x="48.4297" y="0.359375" width="162.359" height="184.562" filterUnits="userSpaceOnUse" color-interpolation-filters="sRGB">
<feFlood flood-opacity="0" result="BackgroundImageFix"/>
<feColorMatrix in="SourceAlpha" type="matrix" values="0 0 0 0 0 0 0 0 0 0 0 0 0 0 0 0 0 0 127 0" result="hardAlpha"/>
<feOffset dy="4"/>
<feGaussianBlur stdDeviation="30"/>
<feComposite in2="hardAlpha" operator="out"/>
<feColorMatrix type="matrix" values="0 0 0 0 0.72549 0 0 0 0 1 0 0 0 0 0.4 0 0 0 1 0"/>
<feBlend mode="normal" in2="BackgroundImageFix" result="effect1_dropShadow_812_13861"/>
<feBlend mode="normal" in="SourceGraphic" in2="effect1_dropShadow_812_13861" result="shape"/>
</filter>
</defs>
</svg>
