<svg width="75" height="87" viewBox="0 0 75 87" fill="none" xmlns="http://www.w3.org/2000/svg">
<path d="M8.46503 37.4261C9.02562 36.5939 10.0858 36.3567 10.9545 36.6368C13.4137 37.4298 16.2169 36.5238 17.7518 34.2451C19.2867 31.9663 19.073 29.0282 17.4139 27.0472C16.828 26.3474 16.6494 25.2758 17.2099 24.4436L18.3063 22.816C18.8668 21.9837 19.9306 21.7195 20.6822 22.2258L47.0883 40.0126L34.1207 59.2642L7.71456 41.4773C6.96296 40.971 6.80812 39.886 7.36871 39.0537L8.46503 37.4261Z" fill="url(#paint0_linear_370_1731)"/>
<g filter="url(#filter0_d_370_1731)">
<path d="M54.2378 21.8672C53.2344 21.8672 52.4461 22.6955 52.1799 23.6629C51.4317 26.3815 49.0275 28.3714 46.1781 28.3714C43.3287 28.3714 40.9246 26.3815 40.1764 23.6629C39.9101 22.6955 39.1218 21.8672 38.1184 21.8672H35.9389C34.9355 21.8672 34.1221 22.6806 34.1221 23.6841V58.6178L57.3865 43.9448C57.9141 43.6121 58.2342 43.0319 58.2342 42.4081V23.6841C58.2342 22.6806 57.4207 21.8672 56.4173 21.8672H54.2378Z" fill="#B9FF66"/>
</g>
<defs>
<filter id="filter0_d_370_1731" x="0.12207" y="0.867188" width="74.1121" height="86.7505" filterUnits="userSpaceOnUse" color-interpolation-filters="sRGB">
<feFlood flood-opacity="0" result="BackgroundImageFix"/>
<feColorMatrix in="SourceAlpha" type="matrix" values="0 0 0 0 0 0 0 0 0 0 0 0 0 0 0 0 0 0 127 0" result="hardAlpha"/>
<feOffset dx="-9" dy="4"/>
<feGaussianBlur stdDeviation="12.5"/>
<feComposite in2="hardAlpha" operator="out"/>
<feColorMatrix type="matrix" values="0 0 0 0 0 0 0 0 0 0 0 0 0 0 0 0 0 0 0.25 0"/>
<feBlend mode="normal" in2="BackgroundImageFix" result="effect1_dropShadow_370_1731"/>
<feBlend mode="normal" in="SourceGraphic" in2="effect1_dropShadow_370_1731" result="shape"/>
</filter>
<linearGradient id="paint0_linear_370_1731" x1="17.9088" y1="42.9482" x2="41.1792" y2="42.9482" gradientUnits="userSpaceOnUse">
<stop stop-color="#0057FF"/>
<stop offset="1" stop-color="#0057FF" stop-opacity="0"/>
</linearGradient>
</defs>
</svg>
